HIERARCHY
ROOT Hips
{
    OFFSET 0.000000 0.000000 0.000000
    CHANNELS 6 Xposition Yposition Zposition Zrotation Xrotation Yrotation
    JOINT Spine
    {
        OFFSET -0.000000 14.517291 0.000000
        CHANNELS 3 Zrotation Xrotation Yrotation
        JOINT Spine1
        {
            OFFSET -0.000000 37.558300 0.000000
            CHANNELS 3 Zrotation Xrotation Yrotation
            JOINT Neck
            {
                OFFSET -0.000000 37.404057 3.400369
                CHANNELS 3 Zrotation Xrotation Yrotation
                JOINT Head
                {
                    OFFSET -0.000000 24.785618 -3.540803
                    CHANNELS 3 Zrotation Xrotation Yrotation
                    End Site
                    {
                        OFFSET -0.000000 35.408028 0.000000
                    }
                }
            }
            JOINT LeftShoulder
            {
                OFFSET 6.992933 33.973492 -0.192664
                CHANNELS 3 Zrotation Xrotation Yrotation
                JOINT LeftArm
                {
                    OFFSET 21.527611 0.000000 0.000000
                    CHANNELS 3 Zrotation Xrotation Yrotation
                    JOINT LeftForeArm
                    {
                        OFFSET 56.353916 0.000000 0.000000
                        CHANNELS 3 Zrotation Xrotation Yrotation
                        JOINT LeftHand
                        {
                            OFFSET 47.774071 0.000000 0.000000
                            CHANNELS 3 Zrotation Xrotation Yrotation
                            End Site
                            {
                                OFFSET 26.556021 0.000000 0.000000
                            }
                        }
                    }
                }
            }
            JOINT RightShoulder
            {
                OFFSET -7.065357 33.973492 -0.192664
                CHANNELS 3 Zrotation Xrotation Yrotation
                JOINT RightArm
                {
                    OFFSET -21.527611 0.000000 0.000000
                    CHANNELS 3 Zrotation Xrotation Yrotation
                    JOINT RightForeArm
                    {
                        OFFSET -56.353916 0.000000 0.000000
                        CHANNELS 3 Zrotation Xrotation Yrotation
                        JOINT RightHand
                        {
                            OFFSET -47.774071 0.000000 0.000000
                            CHANNELS 3 Zrotation Xrotation Yrotation
                            End Site
                            {
                                OFFSET -26.556021 0.000000 0.000000
                            }
                        }
                    }
                }
            }
        }
    }
    JOINT LeftUpLeg
    {
        OFFSET 17.704014 0.000000 0.000000
        CHANNELS 3 Zrotation Xrotation Yrotation
        JOINT LeftLeg
        {
            OFFSET -0.000000 -81.181816 0.000000
            CHANNELS 3 Zrotation Xrotation Yrotation
            JOINT LeftFoot
            {
                OFFSET -0.000000 -62.821102 0.000000
                CHANNELS 3 Zrotation Xrotation Yrotation
                JOINT LeftToeBase
                {
                    OFFSET -0.000000 -11.507608 26.556021
                    CHANNELS 3 Zrotation Xrotation Yrotation
                    End Site
                    {
                        OFFSET -0.000000 0.000000 7.081605
                    }
                }
            }
        }
    }
    JOINT RightUpLeg
    {
        OFFSET -17.704014 0.000000 0.000000
        CHANNELS 3 Zrotation Xrotation Yrotation
        JOINT RightLeg
        {
            OFFSET -0.000000 -81.181816 0.000000
            CHANNELS 3 Zrotation Xrotation Yrotation
            JOINT RightFoot
            {
                OFFSET -0.000000 -62.821102 0.000000
                CHANNELS 3 Zrotation Xrotation Yrotation
                JOINT RightToeBase
                {
                    OFFSET -0.000000 -11.507608 26.556021
                    CHANNELS 3 Zrotation Xrotation Yrotation
                    End Site
                    {
                        OFFSET -0.000000 0.000000 7.081605
                    }
                }
            }
        }
    }
}
MOTION
Frames:    7
Frame Time:    0.008333
7.402714    158.475082    10.895251    -3.389819    9.438122    -7.184433    5.075808    1.154466    10.990702    -4.357771    -2.991560    3.566786    8.888058    -8.227278    -3.558855    2.485384    6.597772    -5.464093    5.087510    2.391598    -9.607967    -42.023426    15.602421    -38.572472    -2.878847    -25.663929    -124.421852    -2.410414    -30.384581    -5.642234    -14.898751    -3.930908    5.242715    30.969376    -21.616270    75.975922    1.499139    -18.676020    22.599861    12.347308    -14.205924    43.609165    12.529667    -34.819580    -11.517478    -16.134882    35.424973    -15.350029    4.411007    -7.804188    41.065807    0.000000    0.000000    0.000000    -13.174601    3.463519    -23.630550    0.823753    19.351904    -10.987655    11.090103    -2.544170    -7.559335    0.000000    0.000000    0.000000    
7.820556    158.642883    11.164902    -3.394504    9.476391    -7.010728    5.124003    1.132196    11.021990    -4.506162    -3.048216    3.570930    8.816913    -8.210989    -3.678651    2.601512    6.586969    -5.561619    5.109807    2.438120    -9.667000    -42.091648    15.725451    -38.714737    -2.906009    -25.571657    -124.466331    -2.483135    -30.341578    -5.680235    -14.883174    -3.846372    5.162319    30.792038    -21.560854    75.896675    1.305904    -18.832029    22.554739    12.391319    -14.307990    43.628483    12.224426    -34.717670    -11.640165    -15.962388    35.230289    -15.511286    4.498287    -7.648234    41.004032    0.000000    0.000000    0.000000    -12.475855    3.422985    -24.535872    0.499297    19.873777    -11.479835    10.975930    -3.238264    -6.857004    0.000000    0.000000    0.000000    
8.209747    158.810455    11.406348    -3.409230    9.507182    -6.877491    5.124249    1.149517    11.061492    -4.574916    -3.138610    3.578914    8.801136    -8.222545    -3.772533    2.593094    6.593789    -5.657657    5.093085    2.448770    -9.695713    -42.213516    15.771243    -38.903500    -2.953568    -25.328136    -124.533981    -2.294914    -30.205521    -5.484285    -14.850600    -3.867985    5.156179    30.864176    -21.611570    75.851280    1.322264    -18.772079    22.528364    12.312395    -14.269587    43.718399    11.973773    -34.606586    -11.801868    -15.853354    35.021790    -15.601504    4.537195    -7.517194    40.983742    0.000000    0.000000    0.000000    -11.806655    3.388500    -25.156374    0.348977    20.382734    -11.840105    10.855932    -3.952391    -6.541582    0.000000    0.000000    0.000000    
8.606908    158.961090    11.642874    -3.393618    9.544692    -6.787385    5.127987    1.130995    11.142651    -4.651226    -3.195794    3.601292    8.635841    -8.177897    -3.895710    2.772182    6.530190    -5.728963    5.020875    2.460479    -9.704452    -42.266872    15.967297    -39.006947    -2.982108    -25.262144    -124.639526    -2.255391    -30.203363    -5.407218    -14.881259    -3.816150    5.110564    30.782463    -21.574497    75.793968    1.145721    -18.929466    22.523853    12.384114    -14.375032    43.663364    11.692194    -34.502789    -11.924980    -15.696001    34.843159    -15.719432    4.578104    -7.407563    40.961464    0.000000    0.000000    0.000000    -11.211790    3.342915    -25.590910    0.303803    20.893044    -12.318674    10.735691    -4.560590    -6.293292    0.000000    0.000000    0.000000    
9.006576    159.098679    11.886665    -3.350710    9.521084    -6.729702    5.106317    1.192126    11.218933    -4.734037    -3.301370    3.620853    8.501235    -8.164508    -4.003294    2.896099    6.547076    -5.799920    4.939163    2.473563    -9.673409    -42.436192    16.055500    -39.039001    -3.054087    -24.957947    -124.766968    -2.195813    -30.049015    -5.339465    -14.880153    -3.772799    5.130967    30.722229    -21.543045    75.727356    0.976444    -19.049238    22.495415    12.455182    -14.434655    43.681664    11.364416    -34.338009    -12.132263    -15.557455    34.669315    -15.781666    4.610843    -7.316675    40.971870    0.000000    0.000000    0.000000    -10.590595    3.334525    -26.321583    -0.085036    21.309671    -12.567522    10.952313    -5.105446    -5.883481    0.000000    0.000000    0.000000    
9.391889    159.232086    12.105971    -3.303763    9.528417    -6.707810    5.129607    1.206960    11.341179    -4.904789    -3.346618    3.655047    8.474088    -8.167053    -4.086036    2.919148    6.526170    -5.877747    4.932412    2.508281    -9.649629    -42.612003    16.126934    -39.122726    -3.125388    -24.684135    -124.896851    -2.093225    -29.926170    -5.254175    -14.854139    -3.781958    5.110240    30.681421    -21.494686    75.670708    0.830888    -19.190289    22.460297    12.502436    -14.530158    43.699226    11.078182    -34.203022    -12.381844    -15.488703    34.473450    -15.782029    4.633323    -7.230708    41.035191    0.000000    0.000000    0.000000    -10.044331    3.271308    -26.663786    -0.217230    21.796097    -12.736164    10.937321    -5.696520    -5.844852    0.000000    0.000000    0.000000    
9.773566    159.353912    12.323872    -3.246299    9.525683    -6.746441    5.023181    1.261477    11.539592    -4.847801    -3.478792    3.717675    8.346475    -8.157500    -4.197511    2.902981    6.517622    -5.966011    4.808790    2.532780    -9.627086    -42.788658    16.293751    -39.178516    -3.164719    -24.463112    -125.011391    -2.098818    -29.793528    -5.254597    -14.958536    -3.719230    5.001042    30.556524    -21.407942    75.659973    0.655073    -19.435291    22.396282    12.562423    -14.727407    43.668373    10.805696    -34.050594    -12.655145    -15.453591    34.292755    -15.711364    4.660119    -7.183551    41.123890    0.000000    0.000000    0.000000    -9.527711    3.205031    -26.811123    -0.315709    22.259529    -12.856853    10.733809    -6.252660    -5.795234    0.000000    0.000000    0.000000    
